<mxfile host="app.diagrams.net" agent="Mozilla/5.0 (Windows NT 10.0; Win64; x64) AppleWebKit/537.36 (KHTML, like Gecko) Chrome/130.0.0.0 Safari/537.36" version="24.8.3">
  <diagram name="Page-1" id="5Cx6zbYq-aXDexnZK_H1">
    <mxGraphModel dx="1100" dy="585" grid="1" gridSize="10" guides="1" tooltips="1" connect="1" arrows="1" fold="1" page="1" pageScale="1" pageWidth="850" pageHeight="1100" math="0" shadow="0">
      <root>
        <mxCell id="0" />
        <mxCell id="1" parent="0" />
        <mxCell id="z-4DbmZ9nGs_QQsth6sy-23" value="" style="endArrow=none;html=1;rounded=0;entryX=0.5;entryY=0;entryDx=0;entryDy=0;exitX=0.5;exitY=1;exitDx=0;exitDy=0;" edge="1" parent="1" source="z-4DbmZ9nGs_QQsth6sy-20" target="z-4DbmZ9nGs_QQsth6sy-1">
          <mxGeometry width="50" height="50" relative="1" as="geometry">
            <mxPoint x="390" y="260" as="sourcePoint" />
            <mxPoint x="440" y="210" as="targetPoint" />
          </mxGeometry>
        </mxCell>
        <mxCell id="z-4DbmZ9nGs_QQsth6sy-11" style="edgeStyle=orthogonalEdgeStyle;rounded=0;orthogonalLoop=1;jettySize=auto;html=1;entryX=-0.033;entryY=0.5;entryDx=0;entryDy=0;entryPerimeter=0;" edge="1" parent="1" source="z-4DbmZ9nGs_QQsth6sy-1" target="z-4DbmZ9nGs_QQsth6sy-12">
          <mxGeometry relative="1" as="geometry">
            <mxPoint x="590" y="80" as="targetPoint" />
          </mxGeometry>
        </mxCell>
        <mxCell id="z-4DbmZ9nGs_QQsth6sy-1" value="Cadastrar paciente" style="rounded=0;whiteSpace=wrap;html=1;" vertex="1" parent="1">
          <mxGeometry x="320" y="60" width="210" height="60" as="geometry" />
        </mxCell>
        <mxCell id="z-4DbmZ9nGs_QQsth6sy-2" value="Marcar consulta" style="rounded=0;whiteSpace=wrap;html=1;" vertex="1" parent="1">
          <mxGeometry x="320" y="150" width="210" height="60" as="geometry" />
        </mxCell>
        <mxCell id="z-4DbmZ9nGs_QQsth6sy-7" style="edgeStyle=orthogonalEdgeStyle;rounded=0;orthogonalLoop=1;jettySize=auto;html=1;entryX=0.045;entryY=0.501;entryDx=0;entryDy=0;entryPerimeter=0;" edge="1" parent="1" source="z-4DbmZ9nGs_QQsth6sy-3" target="z-4DbmZ9nGs_QQsth6sy-8">
          <mxGeometry relative="1" as="geometry">
            <mxPoint x="610" y="270" as="targetPoint" />
          </mxGeometry>
        </mxCell>
        <mxCell id="z-4DbmZ9nGs_QQsth6sy-3" value="Enviar confirmação de consulta" style="rounded=0;whiteSpace=wrap;html=1;" vertex="1" parent="1">
          <mxGeometry x="320" y="240" width="210" height="60" as="geometry" />
        </mxCell>
        <mxCell id="z-4DbmZ9nGs_QQsth6sy-9" style="edgeStyle=orthogonalEdgeStyle;rounded=0;orthogonalLoop=1;jettySize=auto;html=1;" edge="1" parent="1" source="z-4DbmZ9nGs_QQsth6sy-4" target="z-4DbmZ9nGs_QQsth6sy-10">
          <mxGeometry relative="1" as="geometry">
            <mxPoint x="610" y="370" as="targetPoint" />
          </mxGeometry>
        </mxCell>
        <mxCell id="z-4DbmZ9nGs_QQsth6sy-4" value="Paciente vai confirmar consulta" style="rounded=0;whiteSpace=wrap;html=1;" vertex="1" parent="1">
          <mxGeometry x="320" y="340" width="210" height="60" as="geometry" />
        </mxCell>
        <mxCell id="z-4DbmZ9nGs_QQsth6sy-14" style="edgeStyle=orthogonalEdgeStyle;rounded=0;orthogonalLoop=1;jettySize=auto;html=1;" edge="1" parent="1" source="z-4DbmZ9nGs_QQsth6sy-6" target="z-4DbmZ9nGs_QQsth6sy-15">
          <mxGeometry relative="1" as="geometry">
            <mxPoint x="620" y="460" as="targetPoint" />
          </mxGeometry>
        </mxCell>
        <mxCell id="z-4DbmZ9nGs_QQsth6sy-6" value="Paciente deve refletir no painel de senha no H e D da sua consulta" style="rounded=0;whiteSpace=wrap;html=1;" vertex="1" parent="1">
          <mxGeometry x="320" y="430" width="210" height="60" as="geometry" />
        </mxCell>
        <mxCell id="z-4DbmZ9nGs_QQsth6sy-8" value="CHATBOT" style="text;html=1;align=center;verticalAlign=middle;resizable=0;points=[];autosize=1;strokeColor=none;fillColor=none;" vertex="1" parent="1">
          <mxGeometry x="632" y="255" width="80" height="30" as="geometry" />
        </mxCell>
        <mxCell id="z-4DbmZ9nGs_QQsth6sy-10" value="URL" style="text;html=1;align=center;verticalAlign=middle;resizable=0;points=[];autosize=1;strokeColor=none;fillColor=none;" vertex="1" parent="1">
          <mxGeometry x="632" y="355" width="50" height="30" as="geometry" />
        </mxCell>
        <mxCell id="z-4DbmZ9nGs_QQsth6sy-12" value="Recpcionista" style="text;html=1;align=center;verticalAlign=middle;resizable=0;points=[];autosize=1;strokeColor=none;fillColor=none;" vertex="1" parent="1">
          <mxGeometry x="625" y="75" width="90" height="30" as="geometry" />
        </mxCell>
        <mxCell id="z-4DbmZ9nGs_QQsth6sy-13" value="" style="strokeWidth=2;html=1;shape=mxgraph.flowchart.annotation_1;align=left;pointerEvents=1;rotation=-180;" vertex="1" parent="1">
          <mxGeometry x="530" y="105" width="50" height="100" as="geometry" />
        </mxCell>
        <mxCell id="z-4DbmZ9nGs_QQsth6sy-15" value="SISTEMA" style="text;html=1;align=center;verticalAlign=middle;resizable=0;points=[];autosize=1;strokeColor=none;fillColor=none;" vertex="1" parent="1">
          <mxGeometry x="630" y="445" width="80" height="30" as="geometry" />
        </mxCell>
        <mxCell id="z-4DbmZ9nGs_QQsth6sy-16" value="H = Horas&lt;div&gt;&lt;div&gt;D = Dias&lt;/div&gt;&lt;/div&gt;" style="text;html=1;whiteSpace=wrap;overflow=hidden;rounded=0;" vertex="1" parent="1">
          <mxGeometry x="550" y="475" width="70" height="45" as="geometry" />
        </mxCell>
        <mxCell id="z-4DbmZ9nGs_QQsth6sy-18" style="edgeStyle=orthogonalEdgeStyle;rounded=0;orthogonalLoop=1;jettySize=auto;html=1;exitX=1;exitY=0.5;exitDx=0;exitDy=0;" edge="1" parent="1" source="z-4DbmZ9nGs_QQsth6sy-17">
          <mxGeometry relative="1" as="geometry">
            <mxPoint x="630" y="560" as="targetPoint" />
          </mxGeometry>
        </mxCell>
        <mxCell id="z-4DbmZ9nGs_QQsth6sy-17" value="A médica vai chamar o paciente" style="rounded=0;whiteSpace=wrap;html=1;" vertex="1" parent="1">
          <mxGeometry x="320" y="530" width="210" height="60" as="geometry" />
        </mxCell>
        <mxCell id="z-4DbmZ9nGs_QQsth6sy-19" value="SISTEMA&amp;nbsp;" style="text;html=1;align=center;verticalAlign=middle;resizable=0;points=[];autosize=1;strokeColor=none;fillColor=none;" vertex="1" parent="1">
          <mxGeometry x="630" y="545" width="80" height="30" as="geometry" />
        </mxCell>
        <mxCell id="z-4DbmZ9nGs_QQsth6sy-21" style="edgeStyle=orthogonalEdgeStyle;rounded=0;orthogonalLoop=1;jettySize=auto;html=1;exitX=1;exitY=0.5;exitDx=0;exitDy=0;" edge="1" parent="1" source="z-4DbmZ9nGs_QQsth6sy-20">
          <mxGeometry relative="1" as="geometry">
            <mxPoint x="640" y="650" as="targetPoint" />
          </mxGeometry>
        </mxCell>
        <mxCell id="z-4DbmZ9nGs_QQsth6sy-25" style="edgeStyle=orthogonalEdgeStyle;rounded=0;orthogonalLoop=1;jettySize=auto;html=1;exitX=0.5;exitY=1;exitDx=0;exitDy=0;entryX=0;entryY=0.5;entryDx=0;entryDy=0;" edge="1" parent="1" source="z-4DbmZ9nGs_QQsth6sy-20" target="z-4DbmZ9nGs_QQsth6sy-2">
          <mxGeometry relative="1" as="geometry" />
        </mxCell>
        <mxCell id="z-4DbmZ9nGs_QQsth6sy-20" value="Médica marca presença do paciente" style="rounded=0;whiteSpace=wrap;html=1;" vertex="1" parent="1">
          <mxGeometry x="320" y="620" width="210" height="60" as="geometry" />
        </mxCell>
        <mxCell id="z-4DbmZ9nGs_QQsth6sy-26" value="" style="edgeStyle=orthogonalEdgeStyle;rounded=0;orthogonalLoop=1;jettySize=auto;html=1;" edge="1" parent="1" target="z-4DbmZ9nGs_QQsth6sy-20">
          <mxGeometry relative="1" as="geometry">
            <mxPoint x="620" y="650" as="sourcePoint" />
          </mxGeometry>
        </mxCell>
        <mxCell id="z-4DbmZ9nGs_QQsth6sy-22" value="SISTEMA" style="text;html=1;align=center;verticalAlign=middle;resizable=0;points=[];autosize=1;strokeColor=none;fillColor=none;" vertex="1" parent="1">
          <mxGeometry x="632" y="635" width="80" height="30" as="geometry" />
        </mxCell>
      </root>
    </mxGraphModel>
  </diagram>
</mxfile>
